<?xml version="1.0" encoding="UTF-8"?>
<svg id="_Слой_1" data-name="Слой 1" xmlns="http://www.w3.org/2000/svg" viewBox="0 0 60 60">
  <defs>
    <style>
      .cls-1 {
        fill: #fff;
      }

      .cls-1, .cls-2 {
        stroke-width: 0px;
      }

      .cls-2 {
        fill: #000;
        fill-rule: evenodd;
      }
    </style>
  </defs>
  <g id="Page-1">
    <g id="Dribbble-Light-Preview">
      <g id="icons">
        <path id="sunset-_1257_" data-name="sunset-[#1257]" class="cls-2" d="M42.7,21.69c-1.17-1.2-1.17-3.14,0-4.33l6.36-6.5c1.17-1.19,3.07-1.19,4.24,0h0c1.17,1.2,1.17,3.14,0,4.33l-6.37,6.5c-1.17,1.2-3.07,1.2-4.24,0h0ZM27,12.25V3.06c0-1.69,1.34-3.06,3-3.06s3,1.37,3,3.06v9.19c0,1.69-1.34,3.06-3,3.06s-3-1.37-3-3.06h0ZM6.7,15.19c-1.17-1.2-1.17-3.14,0-4.33h0c1.17-1.19,3.07-1.19,4.24,0l6.37,6.5c1.17,1.19,1.17,3.13,0,4.33-1.17,1.2-3.07,1.2-4.24,0l-6.36-6.5ZM44.96,49.42c-10-2.5-19.92-2.5-29.92,0,0-.14-.04-.27-.04-.41,0-8.44,6.73-15.31,15-15.31s15,6.87,15,15.31c0,.14-.03.27-.04.41h0ZM58.29,54.18c-2.49-1.16-4.97-2.16-7.45-3.02,1.36-12.69-8.51-23.59-20.84-23.59s-22.2,10.92-20.84,23.59c-2.47.85-4.96,1.86-7.45,3.02-1.54.72-2.15,2.64-1.38,4.18.74,1.48,2.47,2.04,3.95,1.36,17.38-8.08,34.05-8.08,51.43,0,1.48.69,3.22.12,3.95-1.36.77-1.54.16-3.46-1.38-4.18h0Z"/>
      </g>
      <rect class="cls-1" x="21.42" width="19.62" height="20.61"/>
    </g>
  </g>
</svg>