<?xml version="1.0" encoding="iso-8859-1"?>
<!-- Uploaded to: SVG Repo, www.svgrepo.com, Generator: SVG Repo Mixer Tools -->
<svg fill="#000000" version="1.1" id="Layer_1" xmlns="http://www.w3.org/2000/svg" xmlns:xlink="http://www.w3.org/1999/xlink" 
	 viewBox="0 0 512 512" xml:space="preserve">
<g>
	<g>
		<path d="M493.526,73.897H18.474C8.288,73.897,0,82.185,0,92.371v327.258c0,10.186,8.288,18.474,18.474,18.474h475.052
			c10.186,0,18.474-8.288,18.474-18.474V92.371C512,82.185,503.712,73.897,493.526,73.897z M496.165,419.629
			c0,1.43-1.209,2.639-2.639,2.639H18.474c-1.43,0-2.639-1.209-2.639-2.639v-64.136l90.277-54.166
			c8.426,9.622,20.764,15.375,33.765,15.375c13.763,0,26.596-6.357,35.051-16.946l49.003,26.683
			c-1.472,4.473-2.24,9.212-2.24,14.015c0,24.74,20.126,44.866,44.866,44.866s44.866-20.126,44.866-44.866
			c0-8.598-2.405-16.789-6.877-23.833l50.877-46.211c7.757,5.996,17.341,9.343,27.257,9.343c12.523,0,24.222-5.179,32.575-14.134
			l80.91,52.734V419.629z M110.845,271.835c0-16.008,13.023-29.031,29.031-29.031s29.031,13.023,29.031,29.031
			c0,4.868-1.193,9.607-3.467,13.733c-5.147,9.436-14.943,15.298-25.564,15.298c-10.145,0-19.677-5.4-24.875-14.093l-0.017-0.029
			C112.238,282.196,110.845,277.18,110.845,271.835z M237.526,340.454c0-4.868,1.193-9.607,3.467-13.733
			c5.147-9.436,14.943-15.298,25.564-15.298c7.774,0,15.031,3.022,20.432,8.511l0.088,0.088c5.488,5.403,8.511,12.659,8.511,20.433
			c0,16.008-13.023,29.031-29.031,29.031S237.526,356.462,237.526,340.454z M353.649,234.887c0-16.008,13.023-29.031,29.031-29.031
			s29.031,13.023,29.031,29.031c0,5.656-1.651,11.1-4.775,15.744l-0.081,0.124c-5.324,8.243-14.36,13.163-24.175,13.163
			c-8.116,0-15.899-3.471-21.355-9.523l-0.099-0.108C356.34,249.063,353.649,242.174,353.649,234.887z M496.165,299.45
			l-72.218-47.069c2.368-5.48,3.6-11.412,3.6-17.496c0-24.74-20.126-44.866-44.866-44.866s-44.866,20.127-44.866,44.867
			c0,8.573,2.42,16.807,6.911,23.848l-50.849,46.187c-7.756-6.047-17.26-9.333-27.319-9.333c-13.763,0-26.595,6.357-35.051,16.946
			l-49.003-26.683c1.471-4.473,2.24-9.212,2.24-14.015c0-24.74-20.126-44.866-44.866-44.866S95.01,247.095,95.01,271.835
			c0,5.472,1.022,10.859,2.947,15.917l-82.123,49.274V92.371c0-1.43,1.209-2.639,2.639-2.639h475.052
			c1.43,0,2.639,1.209,2.639,2.639V299.45z"/>
	</g>
</g>
<g>
	<g>
		<polygon points="105.567,147.794 105.567,197.938 121.402,197.938 121.402,163.629 160.99,163.629 160.99,147.794 		"/>
	</g>
</g>
<g>
	<g>
		<rect x="176.825" y="147.794" width="63.34" height="15.835"/>
	</g>
</g>
<g>
	<g>
		<rect x="219.052" y="179.464" width="21.113" height="15.835"/>
	</g>
</g>
<g>
	<g>
		<rect x="187.381" y="179.464" width="21.113" height="15.835"/>
	</g>
</g>
<g>
	<g>
		<polygon points="382.68,116.124 382.68,131.959 422.268,131.959 422.268,166.268 438.103,166.268 438.103,116.124 		"/>
	</g>
</g>
<g>
	<g>
		<rect x="303.505" y="116.124" width="63.34" height="15.835"/>
	</g>
</g>
<g>
	<g>
		<rect x="303.505" y="147.794" width="21.113" height="15.835"/>
	</g>
</g>
<g>
	<g>
		<rect x="335.175" y="147.794" width="21.113" height="15.835"/>
	</g>
</g>
</svg>