<?xml version="1.0" encoding="UTF-8"?>
<svg id="_Слой_1" data-name="Слой 1" xmlns="http://www.w3.org/2000/svg" viewBox="0 0 140.59 140.59">
  <defs>
    <style>
      .cls-1 {
        stroke-width: 2px;
      }

      .cls-1, .cls-2 {
        fill: #1d1d1b;
      }

      .cls-1, .cls-2, .cls-3 {
        stroke-miterlimit: 10;
      }

      .cls-1, .cls-3 {
        stroke: #fff;
      }

      .cls-2 {
        stroke: #1d1d1b;
      }

      .cls-3 {
        fill: none;
        stroke-width: 2.5px;
      }

      .cls-4 {
        fill: #fff;
        stroke-width: 0px;
      }
    </style>
  </defs>
  <rect class="cls-2" x=".5" y=".5" width="139.59" height="139.59"/>
  <rect class="cls-4" x="25.25" y="10.96" width="97.16" height="3.99" rx="1.99" ry="1.99"/>
  <rect class="cls-4" x="1.55" y="31.02" width="44.34" height="4" rx="1.5" ry="1.5" transform="translate(-13.02 50.44) rotate(-79.67)"/>
  <rect class="cls-4" x="102.05" y="31.03" width="43.98" height="4" rx="1.5" ry="1.5" transform="translate(113.78 160.98) rotate(-100.33)"/>
  <rect class="cls-4" x="18.13" y="51.13" width="111.56" height="3.99" rx="1.99" ry="1.99"/>
  <rect class="cls-4" x="18.15" y="31.25" width="41.47" height="4" rx="1.5" ry="1.5" transform="translate(-.8 65.54) rotate(-79.67)"/>
  <rect class="cls-4" x="33.54" y="30.91" width="39.97" height="4" rx="1.5" ry="1.5" transform="translate(13.89 81.66) rotate(-82.47)"/>
  <rect class="cls-4" x="46.74" y="31.02" width="39.97" height="4" rx="1.5" ry="1.5" transform="translate(33.7 99.75) rotate(-90)"/>
  <rect class="cls-4" x="62.15" y="31.25" width="39.97" height="4" rx="1.5" ry="1.5" transform="translate(48.88 115.38) rotate(-90)"/>
  <rect class="cls-4" x="74.61" y="31.03" width="39.97" height="4" rx="1.5" ry="1.5" transform="translate(74.23 131.13) rotate(-97.53)"/>
  <path class="cls-3" d="M97.54,53.1c0,4.26-3.45,7.7-7.7,7.7-4.26,0-7.7-3.45-7.7-7.7"/>
  <rect class="cls-4" x="87.96" y="30.91" width="41.47" height="4" rx="1.5" ry="1.5" transform="translate(95.8 145.74) rotate(-100.33)"/>
  <path class="cls-3" d="M66.28,53.1c0,4.26-3.45,7.7-7.7,7.7-4.26,0-7.7-3.45-7.7-7.7"/>
  <path class="cls-3" d="M82.13,53.1c0,4.26-3.45,7.7-7.7,7.7-4.26,0-7.7-3.45-7.7-7.7"/>
  <path class="cls-3" d="M50.04,53.1c0,4.26-3.45,7.7-7.7,7.7-4.26,0-7.7-3.45-7.7-7.7"/>
  <path class="cls-3" d="M34.63,53.37c0,4.26-3.45,7.7-7.7,7.7-4.26,0-7.7-3.45-7.7-7.7"/>
  <path class="cls-3" d="M112.95,52.89c0,4.26-3.45,7.7-7.7,7.7-4.26,0-7.7-3.45-7.7-7.7"/>
  <path class="cls-3" d="M127.99,53.37c0,4.26-3.45,7.7-7.7,7.7-4.26,0-7.7-3.45-7.7-7.7"/>
  <rect class="cls-4" x="-.87" y="85.43" width="54.7" height="4" rx="2" ry="2" transform="translate(-60.96 113.91) rotate(-90)"/>
  <rect class="cls-4" x="19.96" y="123.24" width="13.04" height="4" rx="2" ry="2" transform="translate(-98.77 151.72) rotate(-90)"/>
  <rect class="cls-4" x="18.13" y="129.76" width="109.87" height="4" rx="2" ry="2"/>
  <rect class="cls-4" x="113.77" y="64.86" width="13.04" height="4" rx="2" ry="2" transform="translate(53.43 187.14) rotate(-90)"/>
  <rect class="cls-4" x="92.94" y="102.42" width="54.7" height="4" rx="2" ry="2" transform="translate(15.87 224.71) rotate(-90)"/>
  <rect class="cls-4" x="11.53" y="102.42" width="54.7" height="4" rx="2" ry="2" transform="translate(-65.54 143.3) rotate(-90)"/>
  <rect class="cls-4" x="36.88" y="77.07" width="27.84" height="4" rx="2" ry="2"/>
  <rect class="cls-4" x="35.37" y="102.42" width="54.7" height="4" rx="2" ry="2" transform="translate(-41.7 167.14) rotate(-90)"/>
  <rect class="cls-4" x="79.47" y="87.43" width="33.11" height="4" rx="2" ry="2"/>
  <rect class="cls-4" x="75.13" y="78.43" width="18" height="4" rx="2" ry="2" transform="translate(164.57 -3.7) rotate(90)"/>
  <rect class="cls-4" x="82.13" y="70.55" width="27.75" height="4" rx="2" ry="2"/>
  <rect class="cls-4" x="98.88" y="78.43" width="18" height="4" rx="2" ry="2" transform="translate(188.32 -27.45) rotate(90)"/>
  <rect class="cls-4" x="92.55" y="77.87" width="10" height="4" rx="2" ry="2" transform="translate(-27.91 92.38) rotate(-45)"/>
  <rect class="cls-4" x="98.44" y="81.76" width="6" height="4" rx="2" ry="2" transform="translate(-29.52 96.26) rotate(-45)"/>
  <circle class="cls-1" cx="55.67" cy="105.42" r="2.57"/>
</svg>