<svg xmlns="http://www.w3.org/2000/svg" id="supSVG" style="transform: scale(0.85); top: -400px; left: -50px; display: inline;" xmlns:xlink="http://www.w3.org/1999/xlink" width="865.76" height="682.89" viewBox="0 0 865.76 682.89"><defs><clipPath><path d="M679.75,117.06A31.29,31.29,0,1,0,711,85.77,31.29,31.29,0,0,0,679.75,117.06Z" fill="#3cd3c8"></path></clipPath><clipPath id="b"><path d="M742.39,218.41A31.36,31.36,0,1,1,711,187.05,31.34,31.34,0,0,1,742.39,218.41Z" fill="#3cd3c8"></path></clipPath></defs><g style="isolation:isolate"><path d="M825,383.16C822.75,447.35,795.39,508.34,748.3,552c-39.67,36.81-83.26,59.68-122.64,73.87q-3.76,1.37-7.49,2.62a403.36,403.36,0,0,1-79.9,18.17,309,309,0,0,1-33.16,2.37c-2.37,0-4.75.13-7.12.3l-1.65.12q-6.29.53-12.48.93-4.78.32-9.52.56c-58.58,3.06-110.45-1.63-155.54-10.64-2.86-.57-5.7-1.16-8.5-1.77q-13.86-3-26.83-6.46-8.54-2.29-16.69-4.76l-.31-.09q-9.3-2.82-18.09-5.83c-13-4.43-25.12-9.15-36.44-14q-12.52-5.37-23.72-10.9c-61.5-30.27-92.52-61.66-92.52-61.66C-.51,419.75,57.94,304.33,57.94,304.33c21.58-72.84,173.53-113.84,173.53-113.84,85.43-21.57,134-70.14,134-70.14C532.69-55,699.93,70,699.93,70,813.65,142.86,828.27,290.71,825,383.16Z" fill="#d8d1a2" data-primary="true"></path><path d="M825,383.16C822.75,447.35,795.39,508.34,748.3,552c-39.67,36.81-83.26,59.68-122.64,73.87q-3.76,1.37-7.49,2.62a403.36,403.36,0,0,1-79.9,18.17,309,309,0,0,1-33.16,2.37c-2.37,0-4.75.13-7.12.3l-1.65.12q-6.29.53-12.48.93-4.78.32-9.52.56c-58.58,3.06-110.45-1.63-155.54-10.64-2.86-.57-5.7-1.16-8.5-1.77q-13.86-3-26.83-6.46-8.54-2.29-16.69-4.76l-.31-.09q-9.3-2.82-18.09-5.83c-13-4.43-25.12-9.15-36.44-14q-12.52-5.37-23.72-10.9c-61.5-30.27-92.52-61.66-92.52-61.66C-.51,419.75,57.94,304.33,57.94,304.33c21.58-72.84,173.53-113.84,173.53-113.84,85.43-21.57,134-70.14,134-70.14C532.69-55,699.93,70,699.93,70,813.65,142.86,828.27,290.71,825,383.16Z" fill="#fff" opacity="0.7"></path><polygon points="100.81 654.74 108.71 654.74 135.85 499.3 120.83 498.51 100.81 654.74" fill="#323232"></polygon><polygon points="223.84 655.53 230.43 655.53 211.72 494.82 195.92 494.3 223.84 655.53" fill="#323232"></polygon><polygon points="273.37 496.4 295.76 655.26 302.35 655.26 284.17 495.09 273.37 496.4" fill="#323232"></polygon><polygon points="220.15 502.99 294.18 502.99 284.96 477.44 213.45 476.51 220.15 502.99" fill="#010202"></polygon><path d="M349.24,649.47,354,647.1,355.57,636l20.55,5.27,41.09-13.43s-2.1-6.85-34-4.48l-16.86-18.18-25.29,5.27Z" fill="#d8d1a2" data-primary="true"></path><path d="M273.11,578.86l-23.71,29,3.95,3.16,12.91-6.32,7.9,17.13,39,20s.53-6.32-20.55-28.45L294.71,581Z" fill="#d8d1a2" data-primary="true"></path><path d="M254.14,578.34l58,19.76,60.63-142.77a36.9,36.9,0,0,0,2.89-17.63c-.81-9.43-5.5-21-22.69-24.55l-122.77-5.79,70.08,70.08Z" fill="#ffffff" data-secondary="true"></path><path d="M254.14,578.34l58,19.76,60.63-142.77a36.9,36.9,0,0,0,2.89-17.63c-.81-9.43-5.5-21-22.69-24.55l-122.77-5.79,70.08,70.08Z" opacity="0.2"></path><ellipse cx="162.01" cy="204.05" rx="14.19" ry="12.98" transform="translate(-57.38 63.52) rotate(-18.91)" fill="#323232"></ellipse><ellipse cx="166.41" cy="213.33" rx="14.23" ry="9.09" transform="translate(-60.15 65.44) rotate(-18.91)" fill="#ffffff" data-secondary="true"></ellipse><path d="M226.54,355.84l2.12,16.81a42.39,42.39,0,0,1,4.64-10.44l6.76-12.56S237.14,352.79,226.54,355.84Z" fill="#ff8d7e"></path><path d="M281.8,312.52l-19.23,65.33c-5.53,20.81-20,21.08-20,21.08-12,1-15-7.67-15.2-15.73a36.52,36.52,0,0,1,4.52-18.57l33.07-60.54s-3.69-1.85-3.16-16.34l-.26-13.17s6.58-1.05,7.11,12.38l15.81-19.76s2.89-3.95,5.79,0c0,0,6.06-2.1,5.27,4.48,0,0,6.59-2.9,3.16,7.64,0,0,6.85-1.58.26,9.75C298.92,289.07,291,309.35,281.8,312.52Z" fill="#ffb799"></path><line x1="290.23" y1="267.2" x2="278.64" y2="284.59" fill="none" stroke="#ff8d7e" stroke-linecap="round" stroke-linejoin="round"></line><line x1="295.5" y1="271.68" x2="284.17" y2="288.02" fill="none" stroke="#ff8d7e" stroke-linecap="round" stroke-linejoin="round"></line><line x1="298.66" y1="279.32" x2="289.44" y2="294.07" fill="none" stroke="#ff8d7e" stroke-linecap="round" stroke-linejoin="round"></line><path d="M274.69,283s11.85,2.9,16.33,14" fill="none" stroke="#ff8d7e" stroke-linecap="round" stroke-linejoin="round"></path><path d="M268.63,287s6.85,1.58,4.48,11.33" fill="none" stroke="#ff8d7e" stroke-linecap="round" stroke-linejoin="round"></path><path d="M200.51,290.12s12.53-2.37,21,15.28L243.34,346S241,352.3,226,355.72l-23.71-45.84Z" fill="#d8d1a2" data-primary="true"></path><path d="M200.51,290.12s12.53-2.37,21,15.28L243.34,346S241,352.3,226,355.72l-23.71-45.84Z" opacity="0.2"></path><polygon points="76.31 325.16 84.21 325.16 131.11 476.12 213.45 476.51 220.15 502.99 110.3 503.52 76.31 325.16" fill="#1e1e1e"></polygon><polygon points="84.21 325.16 137.69 325.16 213.45 476.51 131.11 476.12 84.21 325.16" fill="#323232"></polygon><polygon points="165.36 256.4 165.36 278.8 180.37 288.81 189.59 280.38 189.59 265.36 168.78 253.77 165.36 256.4" fill="#ffb799"></polygon><polygon points="189.59 280.38 165.36 256.4 168.78 253.77 189.59 265.36 189.59 280.38" fill="#ff8d7e"></polygon><path d="M158.51,290.12l-11.86.27-.79,117,27.66.26,56.64-.26-1.84-60.07s-1.19-16.18-15.56-32.72a20.13,20.13,0,0,1-3.72-6.25l-6.2-16.58a2.49,2.49,0,0,0-2.33-1.62Z" fill="#d8d1a2" data-primary="true"></path><path d="M230.16,407.36l-85.35.52s-18.18,69.56,38.46,68L310.52,478l14,139.1,58.22-13.43L366.37,463s.79-41.1-41.89-42.16Z" fill="#ffffff" data-secondary="true"></path><polygon points="281.54 384.7 253.09 656.05 259.67 656.05 296.55 382.86 281.54 384.7" fill="#00b0a3"></polygon><polygon points="493.09 384.7 521.54 656.05 514.95 656.05 478.07 382.86 493.09 384.7" fill="#00b0a3"></polygon><path d="M455.85,264l-12.44,90.11a1,1,0,0,1-1,.84H301.89a1,1,0,0,1-1-1.11l13.25-90.47a2.27,2.27,0,0,1,2.25-1.94H453.6A2.26,2.26,0,0,1,455.85,264Z" fill="#d8d1a2" data-primary="true"></path><polygon points="365.39 354.93 356.98 354.93 359.78 339.39 365.39 354.93" opacity="0.2"></polygon><path d="M222.79,465.58c2.11,7.9-3.43,6.32-3.43,6.32-1.84,7.12-6.85,2.37-6.85,2.37-1.84,6.85-8.16-2.63-8.16-2.63-5,7.64-16.07-21.87-16.07-21.87l-64-39.25c-15.55-10.28-11.86-22.39-11.86-22.39L116,365l1.09-7,35.39,6-1.84,13.21-1.37,9.82,54.53,44.53c3.16.1,6.28,1.64,8.89,3.45a29.58,29.58,0,0,1,8.67,9.51l4.83,8.37c-3.69,3.17-5.79.27-5.79.27l-5.27-4.48Z" fill="#ffb799"></path><line x1="204.35" y1="471.64" x2="197.5" y2="456.62" fill="none" stroke="#ff8d7e" stroke-linecap="round" stroke-linejoin="round"></line><line x1="212.51" y1="474.27" x2="204.35" y2="455.31" fill="none" stroke="#ff8d7e" stroke-linecap="round" stroke-linejoin="round"></line><line x1="219.36" y1="471.9" x2="210.41" y2="454.52" fill="none" stroke="#ff8d7e" stroke-linecap="round" stroke-linejoin="round"></line><line x1="215.15" y1="448.72" x2="213.04" y2="443.98" fill="none" stroke="#ff8d7e" stroke-linecap="round" stroke-linejoin="round"></line><polygon points="152.5 364.04 150.66 377.25 116.02 365 115.95 364.97 117.11 358.03 152.5 364.04" fill="#ff8d7e"></polygon><path d="M106.34,356.51,154,364.68l4.74-52.16s1-20-12.12-22.13c0,0-15.54-6.85-25.82,28.45Z" fill="#d8d1a2" data-primary="true"></path><path d="M106.34,356.51,154,364.68l4.74-52.16s1-20-12.12-22.13c0,0-15.54-6.85-25.82,28.45Z" opacity="0.2"></path><path d="M165.36,278.79V277a7.49,7.49,0,0,1-2.11-.23l-4.74,13.4,17.91,10.54,5-10.8,8.43,9.48,6.85-9.22-7.12-9.74-9.22,8.43Z" fill="#fff"></path><path d="M164.83,253.5s8.68,16.37,27,17.35a4.78,4.78,0,0,0,3-.87l9.36-6.63a4.73,4.73,0,0,0,2-3.87V229.79l-18.7-16.86-18.71,14.49Z" fill="#ffb799"></path><path d="M216.2,272.47a72.58,72.58,0,0,1-26.61,3.95l-.26-5.79s3.95.52,5.5-.65l9.36-6.63a4.32,4.32,0,0,0,2-3.87l-.26-25.74s-11.86,4-12.39-2.89l-.45-5a.57.57,0,0,0-.82-.47.6.6,0,0,0-.32.5l-.19,5.69a2.64,2.64,0,0,1-2,2.47,37,37,0,0,1-12.18.64,1.76,1.76,0,0,1-1.6-1.86l.43-7.81s-2.37-1.32-2.11,6.32c0,0,0,14.23-8.69,16.34l-.79,5.79.53,2.9V277s-8.24-.23-19.81-7.15a4.34,4.34,0,0,1-2.13-3.6l-.95-30.58a9.72,9.72,0,0,1,.22-2.46c.7-3.35,3.12-12.11,10-18.38,0,0,11-11.55,30.7-10.18,1.16.08,2.36.2,3.59.38a24.54,24.54,0,0,1,6.55,1.9,23.74,23.74,0,0,1,10.12,8.62c3.78,5.79,7.53,14.72,7.26,27.2C210.93,242.7,210.14,264.83,216.2,272.47Z" fill="#323232"></path><path d="M193.55,206.88c-2.36.08-20,1.11-25.34,13.58a17.46,17.46,0,0,0-1.33,6.17l-.47,12.65L160.35,238l.2-11.46a17.81,17.81,0,0,1,3-9.67,27.92,27.92,0,0,1,19.87-12.23c1.16.08,2.36.2,3.59.38A24.54,24.54,0,0,1,193.55,206.88Z" fill="#d8d1a2" data-primary="true"></path><path d="M195.13,214a23.42,23.42,0,0,1,6.06,20.54s1.05.27,4.74-.79C205.93,233.74,208,218.73,195.13,214Z" opacity="0.2"></path><path d="M165.36,277V256.4s-4.63,2.71-8.77-.22l-.45,18.74A30.72,30.72,0,0,0,165.36,277Z" opacity="0.2"></path><path d="M206.19,259.48s.48,2.13-2,3.87L194.83,270s-1.29,1.17-5.5.65l.26,5.79s13,.72,24.43-3.19C214,273.23,208.56,266.52,206.19,259.48Z" opacity="0.2"></path><ellipse cx="164.7" cy="253.77" rx="4.08" ry="5.01" fill="#ffb799"></ellipse><circle cx="161.54" cy="247.31" r="10.14" fill="#d8d1a2" data-primary="true"></circle><circle cx="161.54" cy="246.79" r="6.98" opacity="0.2"></circle><rect x="209.35" y="372.58" width="341.96" height="15.28" rx="7.64" fill="#3cd3c8"></rect><path d="M359.78,339.39l9.49,29.77H346.35v3h53a2.39,2.39,0,0,0,2.31-3L394,339.39Z" fill="#d8d1a2" data-primary="true"></path><path d="M650.25,98.67,663.17,86a1.5,1.5,0,0,0-1-2.57h-207A19.15,19.15,0,0,0,436,102.54v29.3A19.16,19.16,0,0,0,455.11,151H629.49a20.1,20.1,0,0,0,20.1-20c0-11.71,0-25-.4-29.45A3.57,3.57,0,0,1,650.25,98.67Z" fill="#00b0a3"></path><circle cx="612.07" cy="116.92" r="25.49" fill="#fff"></circle><path d="M606.21,127.87a1,1,0,0,1-.7-.28L595.15,117.5a1,1,0,0,1,1.4-1.43l9.66,9.4,21.65-21.39a1,1,0,1,1,1.41,1.42l-22.36,22.08A.94.94,0,0,1,606.21,127.87Z" fill="#00b0a3"></path><path d="M578.68,102.56H454.9a.5.5,0,0,1-.5-.5.51.51,0,0,1,.5-.5H578.68a.51.51,0,0,1,.5.5A.5.5,0,0,1,578.68,102.56Z" fill="#fff"></path><path d="M578.68,112.1H454.9a.5.5,0,0,1-.5-.5.51.51,0,0,1,.5-.5H578.68a.51.51,0,0,1,.5.5A.5.5,0,0,1,578.68,112.1Z" fill="#fff"></path><path d="M578.54,122.19H509a.5.5,0,0,1,0-1h69.52a.5.5,0,0,1,0,1Z" fill="#fff"></path><polygon points="570.09 129.59 568.2 133.41 563.98 134.02 567.04 137 566.32 141.2 570.09 139.21 573.86 141.2 573.14 137 576.19 134.02 571.97 133.41 570.09 129.59" fill="#d8d1a2" data-primary="true"></polygon><polygon points="549.91 129.59 548.03 133.41 543.81 134.02 546.86 137 546.14 141.2 549.91 139.21 553.69 141.2 552.97 137 556.02 134.02 551.8 133.41 549.91 129.59" fill="#d8d1a2" data-primary="true"></polygon><polygon points="529.47 129.59 527.58 133.41 523.36 134.02 526.41 137 525.69 141.2 529.47 139.21 533.24 141.2 532.52 137 535.57 134.02 531.35 133.41 529.47 129.59" fill="#d8d1a2" data-primary="true"></polygon><polygon points="509.29 129.59 507.4 133.41 503.19 134.02 506.24 137 505.52 141.2 509.29 139.21 513.06 141.2 512.34 137 515.4 134.02 511.18 133.41 509.29 129.59" fill="#d8d1a2" data-primary="true"></polygon><polygon points="489.12 129.59 487.23 133.41 483.01 134.02 486.06 137 485.34 141.2 489.12 139.21 492.89 141.2 492.17 137 495.22 134.02 491 133.41 489.12 129.59" fill="#d8d1a2" data-primary="true"></polygon><path d="M650.25,200.5l12.92-12.71a1.51,1.51,0,0,0-1-2.58h-207A19.16,19.16,0,0,0,436,204.37v29.3a19.16,19.16,0,0,0,19.16,19.16H629.49a20.1,20.1,0,0,0,20.1-20c0-11.7,0-25-.4-29.44A3.57,3.57,0,0,1,650.25,200.5Z" fill="#3cd3c8"></path><circle cx="612.07" cy="218.75" r="25.49" fill="#fff"></circle><line x1="578.68" y1="203.89" x2="454.9" y2="203.89" fill="none" stroke="#fff" stroke-linecap="round" stroke-linejoin="round"></line><line x1="578.68" y1="213.3" x2="454.9" y2="213.3" fill="none" stroke="#fff" stroke-linecap="round" stroke-linejoin="round"></line><line x1="578.54" y1="222.7" x2="455.04" y2="222.7" fill="none" stroke="#fff" stroke-linecap="round" stroke-linejoin="round"></line><line x1="578.27" y1="232.11" x2="507.11" y2="232.11" fill="none" stroke="#fff" stroke-linecap="round" stroke-linejoin="round"></line><path d="M528.24,293.92l-12.92-12.71a1.5,1.5,0,0,1,1-2.57h207a19.15,19.15,0,0,1,19.15,19.16v29.29a19.15,19.15,0,0,1-19.15,19.16H549a20.1,20.1,0,0,1-20.09-20c0-11.7,0-25,.39-29.45A3.56,3.56,0,0,0,528.24,293.92Z" fill="#d8d1a2" data-primary="true"></path><line x1="547.04" y1="297.31" x2="726.97" y2="297.31" fill="none" stroke="#fff" stroke-linecap="round" stroke-linejoin="round"></line><line x1="547.04" y1="306.72" x2="726.97" y2="306.72" fill="none" stroke="#fff" stroke-linecap="round" stroke-linejoin="round"></line><line x1="547.24" y1="316.12" x2="726.78" y2="316.12" fill="none" stroke="#fff" stroke-linecap="round" stroke-linejoin="round"></line><line x1="624.74" y1="325.53" x2="726.7" y2="325.53" fill="none" stroke="#fff" stroke-linecap="round" stroke-linejoin="round"></line><path d="M679.75,117.06A31.29,31.29,0,1,0,711,85.77,31.29,31.29,0,0,0,679.75,117.06Z" fill="#3cd3c8"></path><g clip-path="url(#a)"><path d="M697.77,111.39c-.4-3.59-1.36-10.61.05-12.67,3-4.4,9.52-6.51,14.87-6.69s13.39,5.57,12.8,10.55c-.81,6.75-.54,12.52-2.32,16.14C718.3,128.66,699.86,130.23,697.77,111.39Z" fill="#323232"></path><path d="M699.22,104.27h0a13.1,13.1,0,0,1,3.24-1.62,28.83,28.83,0,0,1,3.93-1.43,16.64,16.64,0,0,1,8.2-.35,21.54,21.54,0,0,1,5.93,2.52c1.45.85,3.16,2,3.42,3.81.29,2,0,9.48,0,9.6a13.8,13.8,0,0,1-.76,1.93c-4.77,9.73-22.53,11.44-25.24-6.17.2-1.35.19-2.74.28-4.1C698.3,107.26,698.22,105.12,699.22,104.27Z" fill="#ffd658" opacity="0.5" style="mix-blend-mode:multiply"></path><path d="M699.22,104.27h0a13.1,13.1,0,0,1,3.24-1.62,28.83,28.83,0,0,1,3.93-1.43,16.64,16.64,0,0,1,8.2-.35,21.54,21.54,0,0,1,5.93,2.52c1.45.85,3.16,2,3.42,3.81.29,2,0,9.48,0,9.6a13.8,13.8,0,0,1-.76,1.93c-4.77,9.73-22.53,11.44-25.24-6.17.2-1.35.19-2.74.28-4.1C698.3,107.26,698.22,105.12,699.22,104.27Z" fill="#1e1e1e"></path><path d="M688.88,148.78a19.14,19.14,0,0,1,2.62-7.62,23.6,23.6,0,0,1,20-10.72c10.94,0,20.18,7.44,22.31,17.19.09.38.16.76.22,1.15Z" fill="#d8d1a2" data-primary="true"></path><path d="M710.81,130.45C700,130.62,691,138,688.88,147.63c-.08.38-.15.76-.22,1.15l29,.58Z" opacity="0.2"></path><path d="M706.42,131.38l.75-7.45h8.68l.68,6.79a3.7,3.7,0,0,1,.07.66h0c0,2.36-3.77,2.89-5.07,2.89-1.65,0-5.06-.53-5.06-2.89Z" fill="#ffb59b"></path><path d="M707.17,123.93h8.68l.25,2.54c-4,5.16-9.28,2.05-9.28.93Z" fill="#ffb59b" opacity="0.5" style="mix-blend-mode:multiply"></path><path d="M700.05,102.15l22.92-.52c.65,1.53-.16,13.22-.24,14-.39,3.72-1.61,7.75-4.89,10.15a10.13,10.13,0,0,1-2.7,1.38,12.28,12.28,0,0,1-3.26.6h-.74a12.28,12.28,0,0,1-3.26-.6,10.28,10.28,0,0,1-2.7-1.38c-3.28-2.4-4.5-6.43-4.89-10.15C700.21,114.85,699.4,102.18,700.05,102.15Z" fill="#ffb59b"></path><path d="M711.1,95.48a12.23,12.23,0,0,1,5.5,1.28c-1.41-.7-3.79-.38-5.26-.09-2.85.56-5.13,2.06-7.56,3.56-.57.36-1.55,1.18-2.27,1-2-.54,2.21-3.57,2.77-3.9A13.19,13.19,0,0,1,711.1,95.48Z" fill="#1e1e1e"></path><path d="M704.38,105.28c3.33-1.46,7.48-6,11.32-3.27a1.75,1.75,0,0,0,.25.16c-1.34-.22-3,.08-5.27,1.41,0,0-8.24,6.18-11.88,2.49-.23-.24-.15-.55-.06-.89A6.46,6.46,0,0,0,704.38,105.28Z" fill="#1e1e1e"></path><rect x="716.24" y="136.7" width="5.93" height="3.67" rx="0.41" fill="#008bff" style="mix-blend-mode:multiply"></rect><path d="M723.88,113.14s-.32,2.44-.42,3.14-.35,2.73-.35,2.73c.83-.33,3.35-2.51,2.57-6.82C725.45,110.86,723.94,112,723.88,113.14Z" fill="#ff8d7e"></path><path d="M699.67,112.92s.33,2.44.42,3.14.36,2.73.36,2.73c-.84-.33-3.35-2.51-2.58-6.82C698.11,110.64,699.61,111.74,699.67,112.92Z" fill="#ff8d7e"></path><path d="M719.37,137.49v2.13H719v-.9h-1.05v.9h-.4v-2.13h.4v.86H719v-.86Z" fill="#d8d1a2" data-primary="true"></path><path d="M720.16,137.49v2.13h-.4v-2.13Z" fill="#d8d1a2" data-primary="true"></path><path d="M720.57,137.71a.25.25,0,0,1,.49,0A.25.25,0,0,1,720.57,137.71Zm0,1.91v-1.57h.4v1.57Z" fill="#d8d1a2" data-primary="true"></path></g><circle cx="711.04" cy="117.06" r="31.29" fill="none"></circle><path d="M677.91,117.06A33.12,33.12,0,0,0,711,150.18C755,148.44,755,85.67,711,83.93a33.13,33.13,0,0,0-33.13,33.13Z" fill="none" stroke="#00b0a3" stroke-linecap="round" stroke-linejoin="round" stroke-dasharray="1.98 3.96"></path><path d="M606.07,230.79a1,1,0,0,1-.69-.28L595,220.42a1,1,0,1,1,1.39-1.43l9.66,9.4L627.73,207a1,1,0,1,1,1.4,1.42L606.78,230.5A1,1,0,0,1,606.07,230.79Z" fill="#00b0a3"></path><path d="M744.23,218.41A33.19,33.19,0,0,1,711,251.6c-44-1.75-44-64.64,0-66.39a33.2,33.2,0,0,1,33.19,33.2Z" fill="none" stroke="#00b0a3" stroke-linecap="round" stroke-linejoin="round" stroke-dasharray="1.99 3.97"></path><path d="M742.39,218.41A31.36,31.36,0,1,1,711,187.05,31.34,31.34,0,0,1,742.39,218.41Z" fill="#3cd3c8"></path><g clip-path="url(#b)"><path d="M742.39,218.41A31.36,31.36,0,1,1,711,187.05,31.34,31.34,0,0,1,742.39,218.41Z" fill="none"></path><path d="M724.4,226.19c3.27-1.5,3.73-5,2.7-8.14-.39-1.17-.94-2.28-1.33-3.45-.67-2-.38-4.25-.6-6.35a14.65,14.65,0,0,0-14.77-13.66,14.85,14.85,0,0,0-12.79,7.66,18.83,18.83,0,0,0-1.63,4.66c-.85,4.22-4.83,7.23-5.37,11.58-.36,2.95,2.41,5.34,4.8,6.51a34.26,34.26,0,0,0,8.36,2.55,36.76,36.76,0,0,0,11.75.09C718.46,227.3,721.65,227.46,724.4,226.19Z" fill="#323232"></path><path d="M727.3,222.92a8.22,8.22,0,0,0-1.82-3.72c-1.61-2.33-3.13-5-3.24-8-.14-3.37-2-6-3.47-8.92a8.31,8.31,0,0,0-7.36-4.52c-2.74.11-5.45.33-7.48,2.4s-3.08,4.71-4.34,7.38a60.44,60.44,0,0,1-4,7.13c-1.7,2.72-3.62,4.92-2,9.17a10.92,10.92,0,0,0,1.84,1.12,34.26,34.26,0,0,0,8.36,2.55,36.76,36.76,0,0,0,11.75.09c2.94-.34,6.13-.18,8.88-1.45A5.17,5.17,0,0,0,727.3,222.92Z" fill="#1e1e1e"></path><path d="M733,251.17a19.28,19.28,0,0,0-2.62-7.64,23.66,23.66,0,0,0-20.05-10.73c-11,0-20.22,7.45-22.36,17.22-.08.38-.15.77-.22,1.15Z" fill="#ffffff" data-secondary="true"></path><path d="M716.25,251.17l-5.94-18.37c-11,0-20.22,7.45-22.36,17.22-.08.38-.15.77-.22,1.15Z" fill="#fd7287" opacity="0.5" style="mix-blend-mode:multiply"></path><path d="M715.4,233.74l-.75-7.47H706l-.69,6.81a3.7,3.7,0,0,0-.07.66h0c0,2.36,3.78,2.89,5.08,2.89,1.66,0,5.08-.53,5.08-2.89Z" fill="#ffb59b"></path><path d="M714.65,226.27H706l-.26,2.55c4,5.17,9.3,2.05,9.3.93Z" fill="#ffb59b" opacity="0.5" style="mix-blend-mode:multiply"></path><path d="M721.79,203.82h-23c-.65,2.51.16,12.2.24,13.06.39,4,1.61,8.31,4.91,10.88a10,10,0,0,0,2.69,1.49,12,12,0,0,0,3.27.64h.74a11.93,11.93,0,0,0,3.27-.64,9.89,9.89,0,0,0,2.7-1.49c3.3-2.57,4.52-6.9,4.9-10.88C721.63,216,722.44,206.33,721.79,203.82Z" fill="#ffb59b"></path><rect x="700.71" y="237.04" width="5.94" height="3.67" rx="0.41" fill="#d8d1a2" data-primary="true"></rect><path d="M703.36,240.05v-.86h-1.05v.86h-.4v-2.14h.4v.9h1.05v-.9h.4v2.14Z" fill="#ffffff" data-secondary="true"></path><path d="M704.15,240.05v-2.14h.4v2.14Z" fill="#ffffff" data-secondary="true"></path><path d="M705.45,239.83a.25.25,0,0,1-.49,0A.25.25,0,1,1,705.45,239.83Zm-.05-1.92v1.58H705v-1.58Z" fill="#ffffff" data-secondary="true"></path><path d="M723.4,209.26c0-2.66-.11-5.32-1.7-7.69A13.58,13.58,0,0,0,710.44,196c-6.15,0-11.35,3.88-12.55,9a18.32,18.32,0,0,0-.4,2.84c-.06.91-.8,4.33.37,4.41,9.62.65,13-6.77,13-6.77s2.84,6.12,11.56,5.7C724.07,211,723.42,210.13,723.4,209.26Z" fill="#323232"></path><path d="M712.34,202a11.73,11.73,0,0,0-1.87.1,12.3,12.3,0,0,0-1.72.26,8,8,0,0,0-2.8,1.3,22.61,22.61,0,0,0-4.27,4.36c-.72.9-1.34,1.87-2,2.82a2.38,2.38,0,0,1-2.25,1,.52.52,0,0,0,.43.29c9.62.65,13-6.77,13-6.77S712.07,202.76,712.34,202Z" fill="#1e1e1e"></path><ellipse cx="698.81" cy="216.75" rx="1.5" ry="2.5" fill="#ffb59b"></ellipse><ellipse cx="721.81" cy="216.75" rx="1.5" ry="2.5" fill="#ffb59b"></ellipse><path d="M742.39,218.41A31.36,31.36,0,1,1,711,187.05,31.34,31.34,0,0,1,742.39,218.41Z" fill="none"></path></g><path d="M585.58,527.47C596.05,506,614.37,494.91,635,501.09s23.84,34.88,8.44,42.15-30.83-13.94-39-18.31S585.58,527.47,585.58,527.47Z" fill="#d8d1a2" data-primary="true"></path><path d="M575.44,584.74c0-2.59.17-5.2.25-7.78q.28-7.77.56-15.53c.28-9.48,1.37-18.76,5.23-27.5a42.54,42.54,0,0,1,16.6-19.14A34.62,34.62,0,0,1,606.8,511,20.46,20.46,0,0,1,617,505.43a41.67,41.67,0,0,1,14.52-.37c.18,0,.17.3,0,.27a34.87,34.87,0,0,0-13.75,1,29.88,29.88,0,0,0-5.52,2.14,25.48,25.48,0,0,0-3.2,2,29.78,29.78,0,0,1,12.61.12,26.65,26.65,0,0,1,4.37,1.45,12.5,12.5,0,0,1,3.45-.3,21,21,0,0,1,4.46.63,33.63,33.63,0,0,1,8.49,3.71.14.14,0,0,1,0,.21.2.2,0,0,1-.13,0,31.66,31.66,0,0,0-8.24-3.14,29.29,29.29,0,0,0-4.27-.62,23.42,23.42,0,0,0-2.37,0,27.41,27.41,0,0,1,13.35,13.3c0,.17-.17.3-.23.13a25.15,25.15,0,0,0-17-13.63c-.47-.12-.93-.18-1.39-.26.17.66.13,1.43.23,2.07.13,1.06.32,2.1.51,3.14a56.45,56.45,0,0,0,1.65,6.29,51.43,51.43,0,0,0,2.51,6.1,28.66,28.66,0,0,0,3.49,5.89.15.15,0,0,1,0,.21.15.15,0,0,1-.21,0,.13.13,0,0,1-.05-.07c-1.24-1.94-2.67-3.72-3.81-5.75a41.66,41.66,0,0,1-4.63-12.45c-.23-1.17-.41-2.32-.54-3.51a7.6,7.6,0,0,1-.14-2.13,27.67,27.67,0,0,0-7.33-.14c.92,5.12,1.89,10.48,4.78,14.93.1.15-.17.28-.25.13a61.81,61.81,0,0,1-3.54-7.33,28.37,28.37,0,0,1-1.77-7.65A34,34,0,0,0,601,515.94a40,40,0,0,0-16.14,17.66,66.53,66.53,0,0,0-6,25.31c-.69,11-.82,22.05-1.92,33,0,.72-1.21,1-1.36.14A39.35,39.35,0,0,1,575.44,584.74Z" fill="#323232"></path><path d="M599.61,513A12.08,12.08,0,0,1,602,510.8c.85-.71,1.73-1.4,2.65-2a19.89,19.89,0,0,1,6-2.75c.17,0,.23.23,0,.26a15.81,15.81,0,0,0-5.87,2.89c-.87.64-1.65,1.33-2.54,2a15.12,15.12,0,0,1-2.39,2.05C599.73,513.41,599.61,513.22,599.61,513Z" fill="#323232"></path><path d="M633,520.86a59.19,59.19,0,0,1,4.8,6.36,37.86,37.86,0,0,1,3.58,7.07s0,.12-.13,0A84,84,0,0,0,632.85,521C632.73,520.91,632.93,520.72,633,520.86Z" fill="#323232"></path><path d="M610.53,518.73a14.82,14.82,0,0,0,1.18,3.89,23.27,23.27,0,0,0,2,3.45c0,.08,0,.14-.13.1a14.12,14.12,0,0,1-3.3-7.37A.13.13,0,1,1,610.53,518.73Z" fill="#323232"></path><path d="M576.91,528s-14.84-18.63-43.42-12c-27.2,6.26-39.75,56.13-12.27,62.08s22.64-40.16,32.64-48C561.22,524.32,571.77,525.56,576.91,528Z" fill="#d8d1a2" data-primary="true"></path><path d="M511.38,543.19a57.16,57.16,0,0,1,5.9-4.51,26.14,26.14,0,0,1,6.28-3.13,38.54,38.54,0,0,1,3.73-4.8,36.77,36.77,0,0,1,8.66-6.89h-.86a38.37,38.37,0,0,0-4.55,0,25.37,25.37,0,0,0-8.82,2.19c-.17,0-.28-.18-.12-.25a40.87,40.87,0,0,1,8.77-2.65,24,24,0,0,1,4.47-.38c.8,0,1.61.05,2.41.13h.46a39,39,0,0,1,8.24-3l-.79-.22c-1.4-.3-2.81-.53-4.24-.69a34.14,34.14,0,0,0-8.57.13.13.13,0,1,1,0-.26,54.47,54.47,0,0,1,8.66-.36,36.42,36.42,0,0,1,7.2.94,36.46,36.46,0,0,1,5.21-.6c9.89-.43,20.85,3.3,27,11.54s7.35,19.16,8.42,29A220.51,220.51,0,0,1,589.94,601c0,.82-1.22.67-1.24-.1-.38-11.76-.79-23.53-1.91-35.23-.53-5.43-1.11-10.88-2-16.26a48.12,48.12,0,0,0-4-13.32,24.38,24.38,0,0,0-9.66-10.38,32.53,32.53,0,0,0-13.67-4.21,36.61,36.61,0,0,0-12.84,1.21,8.52,8.52,0,0,1,.08,2.52,15.92,15.92,0,0,1-.62,3.13,16.81,16.81,0,0,1-1.21,2.79c-.53,1-1.18,1.86-1.78,2.8a.14.14,0,0,1-.23-.15,13.29,13.29,0,0,0,2.23-5.65,28.3,28.3,0,0,0,.34-2.9V523A38.14,38.14,0,0,0,531,529.59c-.7.56-1.36,1.16-2,1.77a13.86,13.86,0,0,1,2.42,3,30.91,30.91,0,0,1,2.54,4.53,38.48,38.48,0,0,1,2.65,9.89.14.14,0,1,1-.28,0,28.58,28.58,0,0,0-3.3-9.43,36.42,36.42,0,0,0-2.53-4.19c-.48-.69-1-1.37-1.5-2-.28-.37-.6-.73-.86-1.11A39.51,39.51,0,0,0,520,543.43h0a18.66,18.66,0,0,1,3.29,4.81A44.44,44.44,0,0,1,526,554a94.74,94.74,0,0,1,3.57,11.79c0,.16-.23.21-.26,0a48.73,48.73,0,0,0-4.06-11.54c-.85-1.8-1.76-3.56-2.7-5.31a45.44,45.44,0,0,1-2.69-4.95,36.15,36.15,0,0,0-3.29,13.19.15.15,0,0,1-.19.09.12.12,0,0,1-.09-.09,46.12,46.12,0,0,1,6.42-20.33c-1.76.75-3.51,1.46-5.19,2.36a30.42,30.42,0,0,0-6,4.19C511.43,543.52,511.25,543.31,511.38,543.19Z" fill="#323232"></path><path d="M532.37,544.32c.86,2.83,1.94,5.57,2.72,8.42a31.87,31.87,0,0,1,1.25,8.41m-.13,0a81.12,81.12,0,0,0-4.11-16.83.14.14,0,0,1,.14-.14.13.13,0,0,1,.13.14h0Z" fill="#323232"></path><path d="M514.25,537.24a15.85,15.85,0,0,1,3.79-2.7,27.24,27.24,0,0,1,4.39-1.55c.16,0,.21.23,0,.26a17.74,17.74,0,0,0-4.22,1.75,29.18,29.18,0,0,0-3.89,2.39.09.09,0,0,1-.08-.11S514.24,537.25,514.25,537.24Z" fill="#323232"></path><path d="M562.82,503.1s-2.77-33.45-27.62-44.29c-20.77-9.05-32.65,14.29-18,28.58C529.1,499,548.16,493.72,562.82,503.1Z" fill="#d8d1a2" data-primary="true"></path><path d="M521.83,465.28a107.65,107.65,0,0,1,11.07,5.25,84.53,84.53,0,0,1,8.58,5.7c-.41-.84-.77-1.73-1.18-2.55-.66-1.31-1.35-2.56-2.11-3.8a36.08,36.08,0,0,0-5.49-6.94c-.13-.11.08-.31.2-.18a55.52,55.52,0,0,1,5.72,6.71,43.66,43.66,0,0,1,2.37,3.79,15.66,15.66,0,0,1,1.65,3.86l.28.2a82.53,82.53,0,0,1,11.87,11.62,3.44,3.44,0,0,0-.22-1c-.46-1.64-1-3.29-1.51-4.86a41.59,41.59,0,0,0-4.42-9.69c-.1-.15.15-.28.23-.13a78.92,78.92,0,0,1,5.21,9.51,35.79,35.79,0,0,1,1.65,4.94,20.91,20.91,0,0,1,.81,3.3c1.08,1.37,2.16,2.77,3.16,4.19,10.68,15.21,16,33.6,17.33,52a164.92,164.92,0,0,1,.28,16.49,105.81,105.81,0,0,1-1.47,16.48c0,.35-.61.25-.59-.09.11-4.83.62-9.65.71-14.5a143.64,143.64,0,0,0-.47-14.52,134.56,134.56,0,0,0-5.42-28.47,101.85,101.85,0,0,0-12.66-26.77c-1-.22-2.08-.5-3.12-.76s-2.47-.64-3.71-1a35.87,35.87,0,0,1-6.87-2.54c-.16-.08,0-.33.15-.23a22.42,22.42,0,0,0,7,2.42c2,.4,4,.65,5.92,1.09a92.82,92.82,0,0,0-5.79-7.6,43.4,43.4,0,0,1-14.14-1.05,59.23,59.23,0,0,1-7.26-2.26c-2.48-1-4.84-2.19-7.3-3.3-.18,0,0-.36.12-.24a41.49,41.49,0,0,0,14.34,4.68,90,90,0,0,0,13.42,1.12c-1.77-2-3.6-4-5.54-5.87-6.59-6.22-14.29-11.94-22.9-14.84C521.59,465.5,521.67,465.19,521.83,465.28Z" fill="#323232"></path><path d="M542.08,465.38a40.7,40.7,0,0,1,3.13,4.47,24.69,24.69,0,0,1,2.11,5.23s-.08.1-.1,0c-.82-1.65-1.53-3.3-2.37-4.95a26.5,26.5,0,0,0-3-4.52C541.76,465.45,541.91,465.19,542.08,465.38Z" fill="#323232"></path><path d="M519,476.53a24.66,24.66,0,0,0,5.09,2.12,42.48,42.48,0,0,0,5.2,1.41m0,.14a24.7,24.7,0,0,1-5.39-1.18,43.68,43.68,0,0,1-5-2.29c-.19,0,0-.28.12-.2Z" fill="#323232"></path><path d="M582.17,497.1c.15,1.44,3.76-12.15,24.73-24.22,19.11-11,41.9-39.48,23.18-57.48C615,400.89,575.18,432.54,582.17,497.1Z" fill="#d8d1a2" data-primary="true"></path><path d="M567.68,575a369.7,369.7,0,0,1,3.3-42.3,189.72,189.72,0,0,1,8.88-37.91c1.65-4.42,3.3-8.77,5.29-13.06a31.46,31.46,0,0,1,0-4.95c.1-2.14.3-4.28.5-6.43s.41-4.26.67-6.39.7-4.25.8-6.38c0-.2.31-.15.26,0a46.76,46.76,0,0,0-.76,6.77q-.2,3.15-.2,6.24v8.55q3-6.29,6.4-12.3c-1.42-8.72.43-17.83,2.21-26.37,0-.17.3,0,.26.08a74.79,74.79,0,0,0-1.38,13.52c-.08,3.57,0,7.17.1,10.75.49-.86,1-1.65,1.51-2.58,2.74-4.45,5.66-8.82,8.74-13a20.6,20.6,0,0,1,.22-6.22,48.18,48.18,0,0,1,1.51-6.79c.68-2.22,1.45-4.42,2.33-6.59s2.12-4.31,3-6.6c0-.18.35,0,.25.12a31.3,31.3,0,0,0-2.64,6.59,57.36,57.36,0,0,0-1.65,6.6c-.44,2.22-.82,4.43-1.12,6.67-.21,1.49-.34,3-.59,4.5a161.15,161.15,0,0,1,14.72-17.13c.13-.13.31,0,.2.2a193.38,193.38,0,0,0-21.43,29.08c-.23.4-.45.79-.68,1.17,1.17-.72,2.49-1.3,3.58-1.89l6.15-3.38,6-3.3c1-.58,2-1.17,3.07-1.65a22.56,22.56,0,0,0,3.56-2c.16-.11.33.14.16.24-2,1.1-3.82,2.75-5.77,4s-4,2.47-6,3.61c-3.74,2.08-7.81,3.58-11.54,5.74q-3.84,6.69-7.07,13.73c2.22-1.43,4.52-2.8,6.82-4.09,1.5-.84,3-1.65,4.5-2.45a23.35,23.35,0,0,0,4.26-2.58.13.13,0,0,1,.18.2h0a39.88,39.88,0,0,1-8.08,5.62c-2.7,1.57-5.42,3.1-8.24,4.47-2.24,4.95-4.29,9.89-6.08,15.07-8.86,25.06-12.12,51.68-13.67,78.11q-.69,11.82-.79,23.65c-.08,7.9.31,15.75.29,23.63a.21.21,0,0,1-.41,0c-1-7-1.12-14.1-1.42-21.14S567.53,582.23,567.68,575Z" fill="#323232"></path><path d="M605.89,461.54a100.43,100.43,0,0,0,11.2-5.78,117.21,117.21,0,0,0,10.6-6.75s.13,0,0,.1a88.71,88.71,0,0,1-10.19,7.14A102.58,102.58,0,0,1,606,461.77C605.88,461.89,605.74,461.61,605.89,461.54Z" fill="#323232"></path><path d="M599.81,433.2c.31-1.22.69-2.42,1.1-3.62a.09.09,0,0,1,0-.12h0c.27-.68.55-1.36.83-2a.27.27,0,0,1,.1-.25l.15-.38h0l-.2.71a2.4,2.4,0,0,1-.12.38,98.6,98.6,0,0,0-3.1,14.23c0,.16-.26.16-.24,0A46.44,46.44,0,0,1,599.81,433.2Z" fill="#323232"></path><polygon points="545.46 580.12 546.96 597.91 551.56 652.18 600.77 652.18 605.37 597.91 606.87 580.12 545.46 580.12" fill="#3cd3c8"></polygon><polygon points="545.46 580.12 546.96 597.91 605.37 597.91 606.87 580.12 545.46 580.12" opacity="0.2"></polygon><rect x="540.63" y="572.98" width="71.07" height="17.06" fill="#3cd3c8"></rect></g>        <svg class="mark-sign" viewBox="0 0 384 42" fill="none" xmlns="http://www.w3.org/2000/svg" style="display: none;">

            </svg></svg>