<?xml version="1.0" encoding="utf-8"?>
<!-- Generator: Adobe Illustrator 26.1.0, SVG Export Plug-In . SVG Version: 6.00 Build 0)  -->
<svg version="1.1" id="Слой_1" xmlns="http://www.w3.org/2000/svg" xmlns:xlink="http://www.w3.org/1999/xlink" x="0px" y="0px"
	 viewBox="0 0 700 600" style="enable-background:new 0 0 700 600;" xml:space="preserve">
<style type="text/css">
	.st0{fill:#020203;}
	.st1{fill:none;stroke:#D7D2A2;stroke-width:4;stroke-miterlimit:10;}
	.st2{fill:#00B0A3;}
	.st3{fill:#CCD69B;}
	.st4{fill:#FFFFFF;}
	.st5{fill:#5EBEB2;}
	.st6{fill:#AEA583;}
	.st7{fill:#F7B39D;}
	.st8{fill:#33241F;}
	.st9{fill:#F6B9C3;}
	.st10{fill:#F29081;}
	.st11{fill:#444443;}
	.st12{fill:#2B2B2B;}
	.st13{fill:#D7D2A2;}
	.st14{fill:#CDCBCD;}
	.st15{fill:#ACA882;}
	.st16{fill:#F7B595;}
	.st17{fill:#333333;}
	.st18{fill:#F7B5A2;}
	.st19{fill:#F18C7B;}
	.st20{fill:#D9D1A2;}
	.st21{fill:#ADA880;}
	.st22{fill:#F7B69A;}
	.st23{fill:#08B0A2;}
	.st24{fill:#B3AA89;}
</style>
<rect x="0.8" y="-0.3" class="st0" width="700.4" height="600.6"/>
<path class="st1" d="M452.6,157.8l-28.3,0.2c-0.8-0.1-1.5-0.2-2.3-0.2h-150c-9.3,0-16.9,7.6-16.9,16.9V199c0,9.3,7.6,16.9,16.9,16.9
	h150c9.3,0,16.9-7.6,16.9-16.9v-24.3c0-0.6,0-1.2-0.1-1.8l14.5-13.3C453.9,159,453.5,157.9,452.6,157.8z"/>
<path class="st1" d="M253.6,72.3l27.4,0c0.8-0.1,2.5,0,3.3,0h150c9.3,0,16.9,7.6,16.9,16.9v24.3c0,9.3-7.6,16.9-16.9,16.9h-150
	c-9.3,0-16.9-7.6-16.9-16.9V89.3c0-0.6,0-1.2,0.1-1.8l-14.5-13.3C252.2,73.5,252.7,72.4,253.6,72.3z"/>
<circle class="st2" cx="499.3" cy="192.5" r="26.4"/>
<circle class="st2" cx="212.1" cy="88.6" r="26.4"/>
<polygon class="st3" points="418.5,110 416.6,113.9 412.3,114.5 415.4,117.5 414.7,121.8 418.5,119.8 422.4,121.8 421.6,117.5 
	424.8,114.5 420.5,113.9 "/>
<polygon class="st3" points="398,110 396,113.9 391.7,114.5 394.8,117.5 394.1,121.8 398,119.8 401.8,121.8 401.1,117.5 
	404.2,114.5 399.9,113.9 "/>
<polygon class="st3" points="377.8,110 375.9,113.9 371.6,114.5 374.7,117.5 374,121.8 377.8,119.8 381.7,121.8 381,117.5 
	384.1,114.5 379.8,113.9 "/>
<polygon class="st3" points="357.3,110 355.3,113.9 351,114.5 354.1,117.5 353.4,121.8 357.3,119.8 361.1,121.8 360.4,117.5 
	363.5,114.5 359.2,113.9 "/>
<polygon class="st3" points="336.9,110 335,113.9 330.7,114.5 333.8,117.5 333.1,121.8 336.9,119.8 340.8,121.8 340,117.5 
	343.2,114.5 338.8,113.9 "/>
<g>
	<circle class="st4" cx="298.3" cy="99.8" r="22.2"/>
	<path class="st5" d="M292.4,109.3l-8.5-8.5c-0.3-0.3-0.3-0.9,0-1.2v0c0.3-0.3,0.9-0.3,1.2,0l8.5,8.5c0.3,0.3,0.3,0.9,0,1.2v0
		C293.3,109.6,292.8,109.6,292.4,109.3z"/>
	<path class="st5" d="M312.7,90.3L294,109.1c-0.3,0.3-0.9,0.3-1.2,0l0,0c-0.3-0.3-0.3-0.9,0-1.2L311.5,89c0.3-0.3,0.9-0.3,1.2,0l0,0
		C313.1,89.4,313.1,90,312.7,90.3z"/>
</g>
<g>
	<circle class="st4" cx="411.3" cy="186.1" r="22.2"/>
	<path class="st5" d="M405.5,195.6l-8.5-8.5c-0.3-0.3-0.3-0.9,0-1.2l0,0c0.3-0.3,0.9-0.3,1.2,0l8.5,8.5c0.3,0.3,0.3,0.9,0,1.2l0,0
		C406.4,195.9,405.8,195.9,405.5,195.6z"/>
	<path class="st5" d="M425.7,176.6L407,195.4c-0.3,0.3-0.9,0.3-1.2,0l0,0c-0.3-0.3-0.3-0.9,0-1.2l18.7-18.7c0.3-0.3,0.9-0.3,1.2,0
		l0,0C426.1,175.7,426.1,176.3,425.7,176.6z"/>
</g>
<path class="st5" d="M329.2,83.9h108.9c0.8,0,1.4-0.6,1.4-1.4l0,0c0-0.8-0.6-1.4-1.4-1.4H329.2c-0.8,0-1.4,0.6-1.4,1.4l0,0
	C327.8,83.3,328.5,83.9,329.2,83.9z"/>
<path class="st5" d="M329.2,91.3h108.9c0.8,0,1.4-0.6,1.4-1.4v0c0-0.8-0.6-1.4-1.4-1.4H329.2c-0.8,0-1.4,0.6-1.4,1.4v0
	C327.8,90.7,328.5,91.3,329.2,91.3z"/>
<path class="st5" d="M329.2,99.1h87.5c0.8,0,1.4-0.6,1.4-1.4v0c0-0.8-0.6-1.4-1.4-1.4h-87.5c-0.8,0-1.4,0.6-1.4,1.4v0
	C327.8,98.4,328.5,99.1,329.2,99.1z"/>
<path class="st5" d="M379.3,171H270.4c-0.8,0-1.4-0.6-1.4-1.4l0,0c0-0.8,0.6-1.4,1.4-1.4h108.9c0.8,0,1.4,0.6,1.4,1.4l0,0
	C380.7,170.4,380.1,171,379.3,171z"/>
<path class="st5" d="M379.3,178.4H270.4c-0.8,0-1.4-0.6-1.4-1.4v0c0-0.8,0.6-1.4,1.4-1.4h108.9c0.8,0,1.4,0.6,1.4,1.4v0
	C380.7,177.8,380.1,178.4,379.3,178.4z"/>
<path class="st5" d="M379.3,185.8H270.4c-0.8,0-1.4-0.6-1.4-1.4l0,0c0-0.8,0.6-1.4,1.4-1.4h108.9c0.8,0,1.4,0.6,1.4,1.4l0,0
	C380.7,185.1,380.1,185.8,379.3,185.8z"/>
<path class="st5" d="M379.3,193.4h-63.2c-0.8,0-1.4-0.6-1.4-1.4l0,0c0-0.8,0.6-1.4,1.4-1.4h63.2c0.8,0,1.4,0.6,1.4,1.4l0,0
	C380.7,192.7,380.1,193.4,379.3,193.4z"/>
<path class="st6" d="M232,117.6c-2.6-8.5-10.6-14.7-19.9-14.7s-17.3,6.2-19.9,14.7H232z"/>
<g>
	<g>
		<path class="st7" d="M211.3,78.8c2.3,16.4,1.5,20.9,0,21.4c-0.7,0.2-1.8-0.3-3-0.7c0,0-2.2-0.9-4.1-2.6c-2.3-2.2-4.5-9.4-3.6-19
			L211.3,78.8z"/>
		<path class="st7" d="M210.9,78.8c-2.3,16.4-1.5,20.9,0,21.4c0.7,0.2,1.8-0.3,3-0.7c0,0,2.2-0.9,4.1-2.6c2.3-2.2,4.5-9.4,3.6-19
			L210.9,78.8z"/>
	</g>
	<path class="st7" d="M211.5,98.8v5.7c-0.2,0-0.4,0-0.6,0c-1.2-0.1-2.1-0.7-2.5-1.1V96L211.5,98.8z"/>
	<path class="st7" d="M211.5,98.8v5.7c0.2,0,0.4,0,0.6,0c1.2-0.1,2.1-0.7,2.5-1.1V96L211.5,98.8z"/>
	<g>
		<path class="st8" d="M201.5,87.6v-8.2h10.1v-8.2c-0.2,0-0.4,0-0.7,0c-1.1,0-5,0.2-8.3,3c-0.7,0.6-1.7,1.5-2.6,3v10.4H201.5z"/>
		<path class="st8" d="M221.4,87.6v-8.2h-10.1v-8.2c0.2,0,0.4,0,0.7,0c1.1,0,5,0.2,8.3,3c0.7,0.6,1.7,1.5,2.6,3v10.4H221.4z"/>
	</g>
	<path class="st7" d="M221.1,91.8c0.4,0,0.7-0.3,1-0.6c0.5-0.5,0.6-1.1,0.8-2.2c0.2-1,0.3-1.5,0-1.7c-0.3-0.3-0.9-0.1-1.2,0.1
		c-0.3,0.1-1.3,0.5-1.7,1.5C219.5,90.1,220.3,91.7,221.1,91.8z"/>
	<path class="st7" d="M201.5,91.8c-0.4,0-0.7-0.3-1-0.6c-0.5-0.5-0.6-1.1-0.8-2.2c-0.2-1-0.3-1.5,0-1.7c0.3-0.3,0.9-0.1,1.2,0.1
		c0.3,0.1,1.3,0.5,1.7,1.5C203.1,90.1,202.3,91.7,201.5,91.8z"/>
</g>
<g>
	<path class="st9" d="M516.5,220.6c-2.3-7.4-9.2-12.7-17.3-12.7s-15,5.3-17.3,12.7H516.5z"/>
	<path class="st7" d="M499.4,204v5.7c-0.2,0-0.4,0-0.6,0c-1.2-0.1-2.1-0.7-2.5-1.1v-7.5L499.4,204z"/>
	<path class="st7" d="M499.4,204v5.7c0.2,0,0.4,0,0.6,0c1.2-0.1,2.1-0.7,2.5-1.1v-7.5L499.4,204z"/>
	<path class="st8" d="M489.8,180.3c1.3-1.8,3-2.7,3.9-3.1c2.6-1.3,5-1.3,6-1.2c1,0,4.5,0.2,7.7,2.7c0.3,0.3,1.7,1.4,3,3.4
		c0.6,0.9,1.4,2.3,1.7,4.1c0.1,0.4,0,0.2,0.2,3.9c0.1,1.3,0.1,1.8,0.4,2.6c0.4,1.1,0.8,1.3,1.3,2.2c0.7,1.3,0.8,3.1,0.3,4.5
		c-0.6,1.5-1.9,2.3-3.4,2.9c-7.1,3.1-15.5,1.3-21.3,0.1c-1.1-0.2-3.2-0.7-5-2.5c-0.6-0.6-2.1-2.1-2.1-4.1c0-1.6,1-2.8,1.8-3.8
		c1.1-1.4,1.8-1.5,2.6-2.9c0.5-0.9,0.5-1.4,0.8-2.8C488.1,184.2,488.6,182.1,489.8,180.3z"/>
	<g>
		<path class="st7" d="M499.4,188.9c1.9,13.5,1.3,17.2,0,17.6c-0.5,0.2-1.5-0.2-2.5-0.6c0,0-1.8-0.7-3.3-2.1
			c-1.9-1.8-3.7-7.8-2.9-15.6L499.4,188.9z"/>
		<path class="st7" d="M499.1,188.9c-1.9,13.5-1.3,17.2,0,17.6c0.5,0.2,1.5-0.2,2.5-0.6c0,0,1.8-0.7,3.3-2.1
			c1.9-1.8,3.7-7.8,2.9-15.6L499.1,188.9z"/>
	</g>
	<path class="st7" d="M490.5,198.8c-0.5,0-0.9-0.4-1.2-0.7c-0.6-0.6-0.7-1.3-0.9-2.6c-0.2-1.2-0.3-1.7,0-2c0.4-0.3,1-0.1,1.4,0.1
		c0.3,0.1,1.6,0.6,2,1.8C492.4,196.9,491.4,198.7,490.5,198.8z"/>
	<path class="st7" d="M508.1,198.8c0.5,0,0.9-0.4,1.2-0.7c0.6-0.6,0.7-1.3,0.9-2.6c0.2-1.2,0.3-1.7,0-2c-0.4-0.3-1-0.1-1.4,0.1
		c-0.3,0.1-1.6,0.6-2,1.8C506.2,196.9,507.1,198.7,508.1,198.8z"/>
</g>
<path class="st10" d="M220.1,316l3.3,9.1l-7.5,15.4c0,0-15.3-10.9-15.3-11.4C200.7,328.7,220.1,316,220.1,316z"/>
<g>
	<g>
		<polygon class="st11" points="105.6,573.2 112.6,573.2 136.9,438.6 123.7,443.1 		"/>
		<polygon class="st11" points="211.6,573.2 216.1,573.2 199.7,438.6 187.2,442.1 		"/>
		<polygon class="st12" points="88.8,297.3 95.7,297.3 136.1,421.3 269.6,423 276.2,443.4 118.3,443.4 		"/>
		<polygon class="st11" points="94.9,297.3 132,297.3 189.1,421.9 136.2,421.9 		"/>
	</g>
	<g>
		<path class="st13" d="M248,505l-16.3,26.7l4.6,1.4l7.5-6.5l9.5,17.1l32.4,16.2c0-0.6-0.2-1.6-0.5-2.8c-0.8-2.5-2.2-4.2-2.9-5
			c-2-2.3-7.7-8.7-15.7-17.1l1.1-19.5L248,505z"/>
		<path class="st14" d="M318.5,367.4l-105.6-4.5l57.6,55.8l-39.7,85.7l49.1,16.7c34-80.8,49.2-115.1,52.9-121
			c0.3-0.5,1.7-2.6,2.5-5.8c1.9-8.1-2.4-15.2-3.1-16.3c-4.3-6.8-10.8-9.2-12.7-9.8"/>
		<path class="st4" d="M330.6,402.1c-0.5-3.2-2.4-13.1-10.7-19.7c-5.8-4.6-12.9-6.1-15.6-6.7c-3.2-0.7-5.6-0.8-6.4-0.9
			c-12.1-0.8-37.4-5.7-85.4-11c0,0-28.4-3.1-59.3,2c-3.2,0.5-9.7,1.7-13.3,6.9c-4.2,6.1-1.9,14.2,0,20.8c2,7.1,4.9,17.4,14.5,23.4
			c7.7,4.8,16.7,5.1,22.9,5.2c3.9,0.1,6.9-0.2,7.5-0.3c8.8-0.9,36.1-1.2,99.3,0c4,38.5,7.9,77,11.9,115.5
			c16.8-3.6,33.6-7.1,50.4-10.7l0,0L330.6,402.1z"/>
		<path class="st15" d="M188,270.4c1.8-1,5.4,0.4,6.4,0.7c0.8,0.3,3.5,1.4,7.2,5.5c1.9,2.1,4.6,5.6,6.8,10.7l16.3,29.7
			c0,0.3,0.1,0.7,0,1.1c-0.8,4.2-10.2,6.7-14.8,6.2C192.6,322.8,181,274.4,188,270.4z"/>
		<path class="st13" d="M214.2,368.2h-71.9l6.2-40.2l-8.4-57.1l26.9-0.7l10.1-1c4.7,1.7,7,1.9,8.1,1.7c0.1,0,0.8-0.1,1.7-0.2
			c1,0,1.9,0,2.6,0.3c1.1,0.5,1.4,1.9,1.7,2.8c0.7,2.3,1.6,4.5,2.3,6.8c0.7,2.1,1.6,5,3.6,7.9c1.3,1.9,1.8,2,3.9,4.5
			c2.6,3.1,4.2,5.7,5.1,7.3c2,3.4,4.5,7.5,5.8,13.4c0.5,2.3,0.7,4.3,0.8,5.6L214.2,368.2z"/>
		<path class="st16" d="M121.7,318.7c-2.4,11.1-3.5,20.5-4.1,27.7c-0.6,8.3-0.5,13.9,2.8,18.6c2.6,3.7,6.2,5.3,7.5,6
			c9.1,4.3,25.7,14.3,49.7,29.6l10.7-12.9l-45.3-36.4l2.2-19.2L121.7,318.7z"/>
		<g>
			<path class="st17" d="M158.6,265.6c-2.7,0.2-4.7-0.5-7-1.4c-6.3-2.4-9.4-3.6-10.4-4.9c-1.1-1.4-1.4-2.8-1.8-7.2
				c-1-10.2-1.5-15.4-0.6-20.8c0.7-4.3,1.2-7.1,3.1-10.4c3.8-6.9,10-10,12.8-11.4c5.6-2.8,10.5-3.3,13.6-3.6c5-0.5,9.3-0.9,14.1,1.2
				c5.9,2.6,8.9,7.2,10.4,9.5c4,6.1,4.5,12.2,4.6,13.9c0.1,1.2,0,0.5,0,8.5c0,6.4,0.1,7.6,0.2,8.7c0.5,4.5,2.4,5.6,2,9.3
				c-0.3,2.6-1.3,3.9-1.6,4.3c-1.3,1.5-2.9,2-3.8,2.3c-6.9,2-16.3,1.5-16.3,1.5c-8.4-0.5-12.3-1.5-16.3-0.1
				C161.1,265.1,160,265.5,158.6,265.6z"/>
			<polygon class="st18" points="179.3,257.6 179.3,265.3 171.3,272.4 159.1,264.7 158.6,264.4 158.6,247.4 			"/>
			<path class="st19" d="M179.2,265.7c-12.7-12.1-16.1-15.4-16-15.5c0.1-0.1,2.8,3.1,7.4,5.1c1.2,0.5,3.2,1.2,5.4,1.8
				c1.3,0.4,2.5,0.6,3.3,0.7L179.2,265.7z"/>
			<path class="st18" d="M194.5,250.8c-0.1,0.5-0.2,1-0.7,1.7c-0.5,0.6-0.9,1.1-1.5,1.5c-0.5,0.4-1.6,1.2-3.7,2.8
				c-1.8,1.3-2.2,1.9-3.6,2.4c-0.8,0.4-1.4,0.5-1.6,0.5c-1.3,0.3-2.5,0.3-3.5,0.1c-4-0.8-3.3-0.6-5.1-1.2c-0.5-0.2-2.1-0.7-4-1.7
				c-1.7-1-2.9-1.9-4-2.8c-3.4-2.8-5.1-4.2-5.3-4.5c-0.1-0.1-0.4-0.5-0.7-0.5c-0.4,0-0.6,0.4-1.1,0.5c-0.4,0.1-0.7,0-1.4-0.1
				c-0.6-0.2-1.3-0.4-1.6-0.8c-1.5-1.7-1.4-3.5-0.6-5.5c0.1-0.1,1.3-3.1,4.1-4.3c0.8-0.3,1.8-0.5,3.3-1.4c0.7-0.4,1.1-0.6,1.5-1
				c1.8-1.6,1.9-4.6,1.9-7.7c0-1.1,0.1-2.2,0.1-3.3c0-0.8-0.1-1.6,0.2-2.5c0.2-0.5,0.4-1.3,1-1.3c0.4,0,0.8,0.1,1,0.4
				c0.2,0.4,0.2,0.8,0.1,1.3c-0.2,0.8-0.2,1.6-0.4,2.4c0,0.1-0.7,3,0.4,4.2c0.3,0.3,0.7,0.4,3.5,0.3c1.3,0,2.5-0.1,4.8-0.2
				c2.2-0.2,2.9-0.2,3.5-0.8c0.5-0.5,0.7-1.1,0.9-1.8c0.5-1.9,0.2-3.6,0.2-3.6c-0.1-0.4-0.2-0.8,0-1.3c0.2-0.4,0.5-0.9,0.9-0.9
				c0.4,0.1,0.6,1,0.7,1.5c0.2,1.1,0.1,1.8,0.1,2.6c0,0.8,0,2.6,1,3.7c0.9,1,2.4,1,4,1c1.4,0,2.5-0.3,3.5-0.5c0.8-0.2,1.5-0.4,2-0.6
				V250.8z"/>
			<g>
				<path class="st20" d="M182.5,207.2c0-0.5-4.3-1.8-9-1.4c-3.5,0.3-6.1,1.5-7.3,2.1c-2.6,1.3-4.3,2.9-5.5,4c-1.6,1.5-3,2.8-4.1,5
					c-1,2-1.2,4-1.6,7.9c-0.3,3.1-0.2,4.5-0.3,9c-0.1,4.8-1,6.6-0.3,6.9c1.3,0.6,5.1-2.2,5.6-5.6c0-0.1,0-0.4,0.1-0.9
					c0.2-2.9,0.1-4.9,0-6c-0.1-1.6-0.2-4.8,1-8.3c0.3-1,1-2.8,2.5-4.8c1.8-2.2,3.7-3.3,5.6-4.3c0.7-0.4,3-1.6,6.5-2.5
					C180,207.3,182.5,207.6,182.5,207.2z"/>
				<circle class="st20" cx="155.6" cy="240.8" r="8.3"/>
				<circle class="st21" cx="156.2" cy="240.4" r="6"/>
			</g>
		</g>
		<path class="st15" d="M149.1,333.3c-13.9-2.2-27.8-4.3-41.6-6.5c8.3-16.2,11.6-25.7,13-31.5c1.3-5.4,2.6-7.9,5.1-12.9
			c1.3-2.5,2.9-5.3,5.8-7.8c1.5-1.3,3-2.5,5.3-3.2c4.4-1.2,9.4,0.5,12.3,3.8c1.1,1.3,1.7,2.6,2.2,4c1.1,3.1,2.5,8.9,1.4,17.4
			L149.1,333.3z"/>
		<polygon class="st4" points="179.8,280.7 185.9,272.6 179.8,264 171,270.1 		"/>
		<polygon class="st4" points="168.8,280.4 153.2,271.7 157.7,260.9 172.4,270.6 		"/>
		<path class="st22" d="M182,382.4c4.1-0.3,6.9,2.2,12.4,7.1c2.5,2.2,1.3,1.8,6.6,9.5c0.1,0.1,0.4,0.5,0.2,0.9
			c-0.2,0.6-1.4,0.9-2,0.9c-2.1,0.1-3.9-1.9-6.2-4.6c-1.6-1.8-2.4-3-2.5-2.9c-0.1,0.1,0,0.4,1.8,4.3c1.1,2.3,1.8,3.7,2.9,6
			c1,2,1.8,4.1,2.9,6c0.4,0.7,1.1,1.9,1,3.3c0,0.3-0.2,1.5-1,2c-0.6,0.3-1.5,0.3-2.1,0.3c-0.5,0-0.8,0-1,0.2
			c-0.1,0.2,0.1,0.4,0.2,1.1c0.1,0.4,0.1,0.8,0,1.1c-0.3,0.6-1.3,0.8-1.5,0.8c-1.7,0.2-2.6-1.2-3.5-0.7c-0.4,0.2-0.3,0.7-0.9,1
			c-0.5,0.3-1.2,0.2-1.6,0.1c-0.6-0.1-1.1-0.3-1.2-0.4c-1.8-0.9-2.1-2.7-2.9-2.6c-0.4,0-0.3,0.4-1,0.7c-0.1,0-0.8,0.4-1.6,0.2
			c-0.9-0.2-1.4-1-1.6-1.4c-1.2-1.9-2.7-3.6-3.7-5.6c-2.6-5.2-2.4-4.5-2.8-5.4c-1.3-3.2-3-7.1-2.1-11.2
			C171.8,387.9,176.5,382.8,182,382.4z"/>
		<path class="st22" d="M256.5,284c-2.6,10.4-5.3,18.9-7.4,25c-9.2,26.6-12.6,34.8-17.4,41.7c-0.3,0.4-2.4,1.8-3.6,2.9
			c-2.6,2.3-7.4,0.7-10.5-1.2c-1-0.6-3.4-3-4.8-7.4c-1.5-4.9,0.6-9.6,1.9-12.2c4.4-9,15.4-28,30.7-52.2L256.5,284z"/>
		<path class="st22" d="M241.8,259.2c0.2-0.7,1.2-0.4,1.2-0.4c0.9,0.1,1.5,0.9,1.8,1.3c0.4,0.6,0.6,1.1,0.8,1.5
			c0.4,1.2,0.4,2.4,0.4,2.6c0,1-0.1,1.6,0.3,2c0.1,0.1,0.2,0.2,0.4,0.2c0.8,0.2,1.7-1.4,2-1.8c0,0,2.1-3.4,10.2-12.3
			c0.1-0.1,0.2-0.2,0.4-0.4c0.5-0.3,0.9-0.3,1.2-0.2c0.4,0,1,0,1.2,0.4c0,0.1,0.1,0.2,0.2,0.6c0.2,0.4,0.2,0.5,0.2,0.6
			c0.2,0.1,0.5-0.1,1-0.3c0.5-0.1,0.9-0.1,1.3,0c0.6,0.1,0.9,0.1,1.2,0.4c0.3,0.3,0.5,0.6,0.5,0.8c0.1,0.3,0.1,0.6,0.2,0.9
			c0,0.2,0,0.3,0,0.8c0,0.5,0,0.6,0.1,0.6c0.1,0.1,0.3,0,0.4-0.1c0.6-0.3,1.3-0.1,1.4,0c0.5,0.2,0.9,0.5,0.9,0.6
			c0.1,0.2,0.4,0.6,0.5,1.4c0.1,1.8-1.2,3.2-0.9,3.5c0.1,0.1,0.2-0.1,0.6-0.1c0.2,0,0.9-0.1,1.3,0.3c0.3,0.3,0.4,0.6,0.4,0.8
			c0.1,0.8-0.2,1.5-0.3,1.6c-2.8,5.2-4.1,7.8-9.1,16.6c-0.1,0.1-0.2,0.3-0.4,0.6c-0.4,0.5-1.6,2.2-3.9,2.9c-0.8,0.2-1.4,0.3-1.7,0.3
			c-2.5,0.1-8.9-0.9-12.1-6c-0.7-1.1-1.9-2.7-1.8-6.1C242.1,266.3,241.4,260.7,241.8,259.2z"/>
		<path class="st13" d="M309.8,534.4l7.2,30.4l4.3-2.2l0.7-9.9l18.8,5.5l34.4-11.4c-0.5-0.4-1.3-1-2.4-1.6c-2.3-1.2-4.5-1.4-5.6-1.5
			c-3.1-0.2-11.6-0.7-23.2-1l-13-14.6L309.8,534.4z"/>
	</g>
</g>
<g>
	<path class="st23" d="M485.3,350.2H203.2c-3.5,0-6.3-2.8-6.3-6.3l0,0c0-3.5,2.8-6.3,6.3-6.3h282.1c3.5,0,6.3,2.8,6.3,6.3l0,0
		C491.5,347.4,488.7,350.2,485.3,350.2z"/>
	<polygon class="st23" points="235,574.6 241,574.6 272.2,347.2 259.9,347.2 	"/>
	<polygon class="st23" points="466.6,574.6 460.6,574.6 429.3,347.2 441.7,347.2 	"/>
</g>
<g>
	<polygon class="st13" points="288.1,243.3 408.7,243.3 398.6,322.2 276.1,322.2 	"/>
	<polygon class="st24" points="323.7,322.2 326.1,309.2 330.8,322.2 	"/>
	<polygon class="st13" points="314.7,334.2 314.7,336.3 361.8,336.3 362.6,334.8 358.3,319.2 329.5,318.7 334.2,333.8 	"/>
</g>
</svg>
